<svg aria-hidden="true" style="position:absolute;width:0;height:0;overflow:hidden" xmlns="http://www.w3.org/2000/svg"><defs><symbol id="bbutton" viewBox="0 0 32 32"><path fill="#fff" style="fill:var(--color1, #fff)" opacity=".4" d="M6 0h20a6 6 0 0 1 6 6v20a6 6 0 0 1-6 6H6a6 6 0 0 1-6-6V6a6 6 0 0 1 6-6z"/></symbol><symbol id="ccalen" viewBox="0 0 32 32"><path fill="#fff" style="fill:var(--color1, #fff)" d="M8 1a.997.997 0 0 0-1-1 .997.997 0 0 0-1 1v1H4a4.003 4.003 0 0 0-4 4v2h32V6a4.003 4.003 0 0 0-4-4h-2V1a.997.997 0 0 0-1-1 .997.997 0 0 0-1 1v1H8V1zm24 27V10H0v18a4.003 4.003 0 0 0 4 4h24a4.003 4.003 0 0 0 4-4zM19 14h2a.997.997 0 0 1 1 1v2a.997.997 0 0 1-1 1h-2a.997.997 0 0 1-1-1v-2a.997.997 0 0 1 1-1zm6 0h2a.997.997 0 0 1 1 1v2a.997.997 0 0 1-1 1h-2a.997.997 0 0 1-1-1v-2a.997.997 0 0 1 1-1zM4 21a.997.997 0 0 1 1-1h2a.997.997 0 0 1 1 1v2a.997.997 0 0 1-1 1H5a.997.997 0 0 1-1-1v-2zm7-1h2a.997.997 0 0 1 1 1v2a.997.997 0 0 1-1 1h-2a.997.997 0 0 1-1-1v-2a.997.997 0 0 1 1-1z"/></symbol><symbol id="ggeo" viewBox="0 0 32 32"><path fill="#fff" style="fill:var(--color1, #fff)" d="M16 .444A12.238 12.238 0 0 0 3.778 12.666a12.098 12.098 0 0 0 2.462 7.333s.333.439.388.502L16 31.554l9.377-11.059c.049-.059.383-.497.383-.497l.001-.003a12.094 12.094 0 0 0 2.461-7.33A12.238 12.238 0 0 0 16 .443zm0 16.667a4.447 4.447 0 0 1-4.359-5.312 4.448 4.448 0 0 1 3.492-3.492 4.443 4.443 0 1 1 .868 8.803z"/></symbol><symbol id="lleft" viewBox="0 0 32 32"><path d="M0 8h16c8.837 0 16 7.163 16 16H16C7.163 24 0 16.837 0 8z"/></symbol><symbol id="llogo1" viewBox="0 0 32 32"><path d="M14.496 31.968c-.01-.016-.198-.034-.418-.039s-.609-.044-.865-.087c-2.242-.374-4.509-1.187-6.019-2.16-.279-.18-.343-.249-.297-.323.033-.054.144-.026.79.195.309.106.789.242 1.066.302.469.102.565.109 1.377.109 1.218 0 1.635-.069 2.962-.49 2.527-.801 3.159-.805 5.67-.032 1.442.444 2.009.542 3.131.542.817 0 1.584-.144 2.507-.47.245-.087.492-.166.548-.177.11-.021.163.026.13.113-.051.133-1.34.853-2.132 1.19-1.543.658-3.937 1.268-5.041 1.284-.224.003-.418.022-.43.041-.026.042-2.953.043-2.979.001zm-5.781-3.129c-2.009-.297-3.751-1.205-5.236-2.732-.809-.831-1.406-1.693-2.009-2.898C.682 21.633.12 19.601.024 17.976c-.033-.555-.032-3.638.001-4.165.067-1.074.46-2.651 1.001-4.019.207-.525.757-1.668 1.02-2.122l.191-.329c.53-.92 1.548-2.211 2.448-3.102a15.308 15.308 0 0 1 2.538-2.05c.288-.187.567-.369.62-.406.197-.134 1.391-.739 1.827-.925.967-.413 2.072-.775 2.401-.786.108-.004.205-.022.216-.039S12.398 0 12.51 0c.171 0 .204.011.208.074.005.06-.056.093-.331.178-1.15.356-2.471.984-3.744 1.782-.957.6-2.078 1.538-3.006 2.514-2.376 2.501-3.759 5.509-4.179 9.093-.082.699-.093 2.553-.019 3.212.455 4.043 2.203 7.248 4.795 8.791.968.576 2.031.881 3.218.922.963.034 1.578-.093 3.32-.681 1.637-.554 2.081-.671 2.798-.738a5.422 5.422 0 0 1 1.601.116c.331.072 1.71.502 2.46.767 1.155.409 2.01.568 2.889.537 1.44-.051 2.7-.489 3.845-1.338 2.246-1.664 3.763-4.713 4.167-8.376.066-.596.066-2.408.001-3.022-.289-2.708-1.088-5.005-2.473-7.109a16.463 16.463 0 0 0-5.424-5.113C21.76 1.104 20.433.514 19.582.251c-.269-.083-.339-.12-.339-.178 0-.062.03-.073.192-.073.105 0 .2.014.211.032s.119.036.24.041c.543.022 2.275.666 3.454 1.284 3.769 1.976 6.523 5.205 7.912 9.275.362 1.06.66 2.427.673 3.083.004.203.027.393.051.424.034.044.032.049-.009.024-.042-.025-.044-.016-.008.051.054.1.033 2.947-.028 3.898-.046.713-.171 1.427-.414 2.363-.814 3.133-2.501 5.629-4.79 7.085-.815.519-2.015 1.004-2.95 1.193-.391.079-.553.09-1.393.09-1.266 0-1.88-.104-3.606-.613-1.815-.535-2.051-.584-2.792-.584s-.978.05-2.792.584c-1.665.491-2.248.594-3.451.612-.501.007-.964.006-1.028-.004zm.136-3.577c-.776-.085-1.405-.272-2.152-.641-1.011-.499-1.863-1.28-2.597-2.383-.347-.521-.652-1.078-.626-1.145.042-.109.189-.055.411.15.485.448 1.595 1.266 1.72 1.266.022 0 .067.025.101.055.083.074.73.356 1.089.474a6.637 6.637 0 0 0 2.424.284c.911-.072 1.56-.225 2.579-.609 1.605-.606 2.462-.817 3.657-.902.89-.063 1.933.038 2.877.277.456.116.962.282 1.726.565.827.307 1.287.445 1.827.549 1.809.347 3.472.028 4.959-.953.451-.297 1.099-.809 1.336-1.053.158-.164.315-.208.356-.101.04.104-.539 1.08-.989 1.667a8.857 8.857 0 0 1-1.11 1.142 6.461 6.461 0 0 1-2.831 1.303c-.481.092-1.636.093-2.171.002a10.137 10.137 0 0 1-1.919-.546c-1.562-.594-2.351-.766-3.509-.768-.498 0-.776.02-1.136.082-.86.148-1.2.25-2.671.796a8.57 8.57 0 0 1-1.602.429c-.445.073-1.345.105-1.744.061z"/><path fill="#fff" style="fill:var(--color1, #fff)" d="M13.291 18.938 9.297 9.399c-.284-.657-.567-1.112-.851-1.365s-.61-.403-.98-.449v-.346c.049 0 .173-.006.37-.017.185-.012.32-.017.407-.017.431 0 .875.046 1.331.138.456.081.888.276 1.294.588s.752.801 1.035 1.469l2.496 5.962 1.664-4.424-.647-1.538c-.284-.657-.592-1.112-.925-1.365a2.064 2.064 0 0 0-1.035-.449V7.24c.049 0 .16-.006.333-.017s.302-.017.388-.017c.431 0 .875.046 1.331.138s.888.294 1.294.605c.407.3.752.783 1.035 1.452l2.644 6.29 3.162-8.312h.888L20.149 18.94h-.74l-2.848-6.774-2.533 6.774h-.74z"/></symbol><symbol id="rright" viewBox="0 0 32 32"><path d="M32 8H16C7.163 8 0 15.163 0 24h16c8.837 0 16-7.163 16-16z"/></symbol><symbol id="vvv" viewBox="0 0 32 32"><path fill="#fff" style="fill:var(--color1, #fff)" d="M9.643 8.587c-.48-1.625-1.782-1.447-2.672-.69-2.193 2.026-5.048 6.278-3.221 12.4 1.53 5.187 7.899 8.504 7.899 8.504H4.225S.392 24.505.049 19.451C-.385 13.062 2.174 9.033 5.143 6.406 7.93 3.935 10.58 3.2 10.58 3.2l5.421 17.76 5.42-17.76s2.65.735 5.437 3.206c2.97 2.627 5.528 6.656 5.094 13.045-.343 5.053-4.176 9.35-4.176 9.35h-7.424s6.368-3.317 7.899-8.504c1.828-6.122-1.028-10.374-3.221-12.4-.891-.757-2.193-.935-2.672.69l-6.357 20.048S11.289 13.769 9.644 8.587h-.001z"/></symbol></defs></svg>